<svg id="svg" version="1.1" xmlns="http://www.w3.org/2000/svg" xmlns:xlink="http://www.w3.org/1999/xlink" width="400" height="400" viewBox="0, 0, 400,400"><g id="svgg"><path id="path0" d="M187.800 75.008 C 183.049 75.505,179.863 75.967,175.600 76.779 C 172.060 77.453,170.841 77.753,162.600 79.979 C 152.716 82.649,137.497 90.189,127.200 97.516 C 107.931 111.227,90.378 133.732,82.830 154.400 C 82.549 155.170,82.165 156.160,81.976 156.600 C 80.944 159.009,78.217 168.407,77.450 172.200 C 77.316 172.860,77.013 174.300,76.777 175.400 C 74.692 185.090,73.823 200.131,74.804 209.532 C 75.694 218.069,76.049 220.510,77.224 226.200 C 78.004 229.977,79.700 236.420,80.593 239.000 C 81.236 240.857,83.309 246.482,83.958 248.130 C 85.066 250.943,89.851 260.348,91.686 263.318 C 92.802 265.123,94.183 267.357,94.757 268.281 C 109.036 291.296,136.086 311.936,162.000 319.586 C 166.015 320.772,167.341 321.136,170.700 321.975 C 186.108 325.824,203.951 326.387,221.000 323.561 C 238.327 320.689,254.771 314.170,269.464 304.347 C 296.559 286.234,316.222 256.968,322.778 225.000 C 323.048 223.680,323.365 222.150,323.480 221.600 C 324.861 215.036,325.548 201.385,324.940 192.600 C 324.211 182.078,323.768 179.026,321.599 169.600 C 314.576 139.070,292.698 109.272,265.200 92.786 C 261.106 90.331,250.815 84.945,248.538 84.065 C 244.029 82.322,242.673 81.822,240.157 80.976 C 236.507 79.748,231.470 78.353,227.800 77.555 C 226.700 77.315,225.080 76.960,224.200 76.765 C 214.762 74.677,198.477 73.891,187.800 75.008 M209.177 82.010 C 227.684 83.653,243.407 88.527,259.347 97.562 C 275.547 106.745,293.281 124.512,302.270 140.566 C 304.219 144.047,309.600 155.069,309.600 155.580 C 309.600 155.817,309.766 156.323,309.968 156.705 C 310.491 157.693,311.752 161.297,312.800 164.800 C 313.293 166.450,313.838 168.250,314.010 168.800 C 314.313 169.766,314.789 171.741,315.576 175.300 C 318.531 188.654,318.895 208.411,316.403 220.200 C 316.217 221.080,315.845 222.880,315.575 224.200 C 314.066 231.597,312.323 237.200,308.856 245.800 C 305.661 253.727,295.154 271.157,291.617 274.400 C 291.497 274.510,290.239 275.950,288.820 277.600 C 283.797 283.443,279.003 287.948,270.651 294.673 C 267.832 296.943,258.572 302.762,254.400 304.885 C 243.214 310.578,236.400 312.941,221.600 316.260 C 213.214 318.141,193.052 318.525,182.600 317.003 C 175.373 315.950,162.030 312.429,157.200 310.300 C 153.980 308.881,153.028 308.477,151.200 307.753 C 120.896 295.757,91.955 260.650,84.796 227.200 C 82.351 215.779,81.600 209.174,81.600 199.113 C 81.600 188.916,83.030 178.142,85.596 169.000 C 85.843 168.120,86.197 166.860,86.382 166.200 C 87.094 163.663,88.929 158.399,90.006 155.800 C 90.189 155.360,90.667 154.198,91.069 153.217 C 92.976 148.566,97.691 139.863,100.938 135.000 C 113.463 116.243,133.103 99.525,151.617 91.862 C 152.598 91.456,153.940 90.885,154.600 90.593 C 160.536 87.967,167.202 85.959,177.600 83.664 C 179.584 83.227,184.751 82.549,190.000 82.038 C 194.979 81.553,203.883 81.541,209.177 82.010 M210.600 140.036 C 188.488 141.013,179.228 145.321,173.350 157.366 C 171.075 162.027,172.030 163.430,174.599 159.202 C 178.800 152.287,184.829 148.030,193.200 146.069 C 199.159 144.673,208.821 143.889,209.510 144.746 C 209.918 145.253,209.998 154.385,209.910 190.390 L 209.800 235.400 208.855 237.302 C 207.263 240.506,204.747 242.135,200.677 242.599 C 199.171 242.770,198.409 243.028,198.511 243.332 C 198.932 244.595,254.981 244.074,260.800 242.753 C 265.374 241.714,266.353 241.458,268.600 240.715 C 283.695 235.723,295.896 222.854,299.807 207.800 C 301.566 201.033,302.266 188.229,301.179 182.731 C 300.204 177.803,299.886 176.479,299.130 174.200 C 292.648 154.662,276.186 142.613,253.000 140.438 C 247.524 139.924,219.217 139.656,210.600 140.036 M98.400 140.554 C 98.400 140.928,99.145 141.201,100.696 141.395 C 104.610 141.884,107.575 144.050,109.001 147.464 C 109.893 149.599,109.906 234.369,109.015 236.503 C 107.616 239.851,104.479 242.141,100.677 242.589 C 99.174 242.767,98.409 243.028,98.511 243.332 C 98.735 244.004,130.065 244.004,130.289 243.332 C 130.390 243.029,129.623 242.763,128.123 242.580 C 124.202 242.102,121.613 240.331,120.018 237.037 C 119.209 235.365,119.200 234.863,119.200 189.874 L 119.200 144.400 129.145 144.400 C 142.700 144.400,145.537 145.083,149.817 149.377 C 154.030 153.602,155.963 159.465,155.986 168.080 C 156.028 184.500,147.163 192.000,127.710 192.000 C 123.902 192.000,123.670 192.296,126.281 193.826 C 128.182 194.940,131.352 197.901,134.177 201.200 C 135.025 202.190,136.637 203.990,137.760 205.200 C 138.882 206.410,140.502 208.210,141.360 209.200 C 142.217 210.190,143.837 211.991,144.959 213.201 C 146.082 214.412,147.794 216.302,148.765 217.401 C 149.735 218.501,151.355 220.300,152.365 221.400 C 153.375 222.500,155.730 225.110,157.600 227.200 C 159.470 229.290,161.090 231.090,161.200 231.200 C 161.310 231.310,162.930 233.110,164.800 235.200 C 166.670 237.290,168.290 239.090,168.400 239.200 C 168.510 239.310,169.942 240.930,171.582 242.800 C 191.540 265.552,207.734 273.618,226.200 270.006 C 231.469 268.976,231.171 268.000,225.587 268.000 C 212.234 268.000,198.498 258.541,176.211 234.000 C 174.913 232.570,172.759 230.229,171.425 228.797 C 170.091 227.365,168.023 225.115,166.828 223.797 C 165.633 222.479,163.648 220.320,162.417 219.000 C 161.185 217.680,156.943 213.025,152.989 208.656 C 149.035 204.287,145.040 199.877,144.111 198.856 C 141.899 196.426,141.954 196.152,144.700 195.899 C 160.517 194.437,171.330 174.118,165.401 157.000 C 162.384 148.289,154.612 142.324,144.000 140.575 C 139.034 139.756,98.400 139.737,98.400 140.554 M253.800 144.586 C 257.963 145.107,262.024 145.988,263.800 146.756 C 274.496 151.379,281.097 157.476,285.502 166.800 C 288.285 172.690,288.449 173.178,290.012 180.200 C 295.024 202.719,285.045 227.142,267.343 235.686 C 260.050 239.206,259.459 239.283,238.100 239.487 L 219.200 239.667 219.200 192.067 C 219.200 154.361,219.304 144.425,219.700 144.265 C 220.899 143.781,249.527 144.050,253.800 144.586 " stroke="none" fill="#ffffff" fill-rule="evenodd"></path><path id="path1" d="M0.000 200.000 L 0.000 400.000 200.000 400.000 L 400.000 400.000 400.000 200.000 L 400.000 0.000 200.000 0.000 L 0.000 0.000 0.000 200.000 M219.200 75.343 C 302.435 88.851,349.900 178.241,313.792 253.485 C 269.676 345.417,143.399 351.039,91.096 263.400 C 82.611 249.183,77.521 234.137,74.791 215.200 C 70.865 187.980,78.506 154.828,94.102 131.404 C 116.561 97.674,149.305 78.113,189.800 74.234 C 195.372 73.701,213.229 74.374,219.200 75.343 M196.800 82.285 C 158.000 83.390,123.125 102.706,101.624 135.000 L 98.694 139.400 121.647 139.617 C 149.422 139.879,151.085 140.178,158.583 146.271 C 174.414 159.136,168.096 189.925,148.427 195.756 C 147.232 196.110,145.668 196.400,144.951 196.400 C 142.465 196.400,142.140 196.010,169.943 226.400 C 199.820 259.058,210.301 266.809,225.500 267.489 C 235.884 267.953,229.330 271.205,218.027 271.197 C 199.515 271.184,190.847 265.179,160.578 231.400 C 129.353 196.554,126.531 193.600,124.465 193.600 C 124.136 193.600,123.993 193.199,124.073 192.500 L 124.200 191.400 130.600 191.145 C 140.371 190.755,144.911 189.260,149.672 184.863 C 158.282 176.913,157.462 156.168,148.238 148.610 C 144.336 145.412,141.230 144.807,128.700 144.803 L 119.600 144.800 119.602 189.500 C 119.604 219.779,119.741 234.693,120.029 235.728 C 120.923 238.950,124.855 241.966,128.200 241.997 C 130.155 242.016,130.925 242.456,130.734 243.448 C 130.525 244.533,98.860 244.836,97.968 243.761 C 97.208 242.845,98.449 242.003,100.576 241.991 C 103.936 241.973,107.873 238.964,108.771 235.728 C 109.381 233.532,109.364 151.007,108.753 148.580 C 107.791 144.758,104.179 142.121,99.609 141.904 L 97.418 141.800 95.529 145.349 C 74.239 185.356,78.698 235.832,106.700 271.800 C 160.294 340.640,266.886 329.910,305.383 251.800 C 344.444 172.547,285.018 79.774,196.800 82.285 M254.584 140.001 C 285.106 143.638,303.567 164.787,302.243 194.600 C 301.107 220.177,286.432 237.656,261.400 243.244 C 256.937 244.241,199.796 244.944,198.400 244.020 C 197.256 243.263,198.480 242.224,200.842 241.947 C 203.746 241.606,204.862 241.111,206.563 239.410 C 209.378 236.595,209.200 239.942,209.200 189.951 L 209.200 144.800 207.842 144.800 C 192.408 144.800,181.308 149.715,175.184 159.262 C 173.148 162.437,172.968 162.593,171.833 162.157 C 170.864 161.785,171.050 160.943,172.970 157.018 C 178.527 145.661,186.631 141.396,206.000 139.632 C 211.366 139.143,249.839 139.435,254.584 140.001 M219.784 145.300 C 219.680 145.575,219.640 166.770,219.697 192.400 L 219.800 239.000 235.200 239.121 C 257.740 239.297,262.939 238.370,271.527 232.643 C 283.185 224.868,289.685 211.537,290.271 194.200 C 291.165 167.755,277.964 148.982,255.967 145.414 C 250.953 144.601,220.088 144.504,219.784 145.300 " stroke="none" fill="#242424" fill-rule="evenodd"></path><path id="path2" d="M189.800 74.234 C 149.305 78.113,116.561 97.674,94.102 131.404 C 78.506 154.828,70.865 187.980,74.791 215.200 C 78.684 242.196,87.981 262.988,105.017 282.800 C 150.554 335.753,233.557 340.525,284.613 293.125 C 350.833 231.647,335.114 125.999,253.800 86.039 C 235.626 77.107,209.711 72.327,189.800 74.234 M211.600 75.006 C 217.669 75.660,221.832 76.241,224.200 76.765 C 225.080 76.960,226.700 77.315,227.800 77.555 C 231.470 78.353,236.507 79.748,240.157 80.976 C 242.673 81.822,244.029 82.322,248.538 84.065 C 250.815 84.945,261.106 90.331,265.200 92.786 C 291.533 108.574,312.591 136.315,320.623 165.800 C 324.376 179.573,325.887 194.176,324.949 207.600 C 324.464 214.547,323.967 219.286,323.480 221.600 C 323.365 222.150,323.048 223.680,322.778 225.000 C 316.222 256.968,296.559 286.234,269.464 304.347 C 257.160 312.573,245.251 317.803,229.800 321.768 C 211.666 326.420,188.815 326.500,170.700 321.975 C 167.341 321.136,166.015 320.772,162.000 319.586 C 136.086 311.936,109.036 291.296,94.757 268.281 C 94.183 267.357,92.802 265.123,91.686 263.318 C 89.851 260.348,85.066 250.943,83.958 248.130 C 83.309 246.482,81.236 240.857,80.593 239.000 C 79.700 236.420,78.004 229.977,77.224 226.200 C 76.049 220.510,75.694 218.069,74.804 209.532 C 73.823 200.131,74.692 185.090,76.777 175.400 C 77.013 174.300,77.316 172.860,77.450 172.200 C 78.217 168.407,80.944 159.009,81.976 156.600 C 82.165 156.160,82.549 155.170,82.830 154.400 C 90.378 133.732,107.931 111.227,127.200 97.516 C 137.497 90.189,152.716 82.649,162.600 79.979 C 172.286 77.363,173.872 77.003,180.400 75.935 C 189.662 74.421,202.599 74.035,211.600 75.006 M190.000 82.038 C 184.751 82.549,179.584 83.227,177.600 83.664 C 167.202 85.959,160.536 87.967,154.600 90.593 C 153.940 90.885,152.598 91.456,151.617 91.862 C 133.103 99.525,113.463 116.243,100.938 135.000 C 97.691 139.863,92.976 148.566,91.069 153.217 C 90.667 154.198,90.189 155.360,90.006 155.800 C 88.929 158.399,87.094 163.663,86.382 166.200 C 86.197 166.860,85.843 168.120,85.596 169.000 C 83.030 178.142,81.600 188.916,81.600 199.113 C 81.600 209.174,82.351 215.779,84.796 227.200 C 91.955 260.650,120.896 295.757,151.200 307.753 C 153.028 308.477,153.980 308.881,157.200 310.300 C 162.030 312.429,175.373 315.950,182.600 317.003 C 193.052 318.525,213.214 318.141,221.600 316.260 C 233.561 313.578,238.276 312.122,247.200 308.358 C 253.781 305.582,265.850 298.539,270.651 294.673 C 279.003 287.948,283.797 283.443,288.820 277.600 C 290.239 275.950,291.497 274.510,291.617 274.400 C 295.154 271.157,305.661 253.727,308.856 245.800 C 312.323 237.200,314.066 231.597,315.575 224.200 C 315.845 222.880,316.217 221.080,316.403 220.200 C 318.895 208.411,318.531 188.654,315.576 175.300 C 314.789 171.741,314.313 169.766,314.010 168.800 C 313.838 168.250,313.293 166.450,312.800 164.800 C 311.752 161.297,310.491 157.693,309.968 156.705 C 309.766 156.323,309.600 155.817,309.600 155.580 C 309.600 154.085,301.934 139.664,298.109 133.962 C 274.383 98.599,231.493 77.999,190.000 82.038 M211.400 82.822 C 257.725 86.625,299.014 120.499,312.540 165.800 C 336.282 245.318,272.655 324.055,190.200 317.192 C 106.496 310.225,56.287 219.089,95.529 145.349 L 97.418 141.800 99.609 141.904 C 104.179 142.121,107.791 144.758,108.753 148.580 C 109.364 151.007,109.381 233.532,108.771 235.728 C 107.873 238.964,103.936 241.973,100.576 241.991 C 98.449 242.003,97.208 242.845,97.968 243.761 C 98.860 244.836,130.525 244.533,130.734 243.448 C 130.925 242.456,130.155 242.016,128.200 241.997 C 124.855 241.966,120.923 238.950,120.029 235.728 C 119.741 234.693,119.604 219.779,119.602 189.500 L 119.600 144.800 128.700 144.803 C 141.230 144.807,144.336 145.412,148.238 148.610 C 157.462 156.168,158.282 176.913,149.672 184.863 C 144.911 189.260,140.371 190.755,130.600 191.145 L 124.200 191.400 124.073 192.500 C 123.993 193.199,124.136 193.600,124.465 193.600 C 126.531 193.600,129.353 196.554,160.578 231.400 C 186.065 259.843,192.373 265.184,205.400 269.358 C 214.052 272.130,230.400 271.636,230.400 268.602 C 230.400 267.737,230.240 267.701,225.500 267.489 C 210.301 266.809,199.820 259.058,169.943 226.400 C 142.140 196.010,142.465 196.400,144.951 196.400 C 145.668 196.400,147.232 196.110,148.427 195.756 C 168.096 189.925,174.414 159.136,158.583 146.271 C 151.085 140.178,149.422 139.879,121.647 139.617 L 98.694 139.400 101.624 135.000 C 126.081 98.266,166.354 79.124,211.400 82.822 M206.000 139.632 C 186.631 141.396,178.527 145.661,172.970 157.018 C 171.050 160.943,170.864 161.785,171.833 162.157 C 172.968 162.593,173.148 162.437,175.184 159.262 C 181.308 149.715,192.408 144.800,207.842 144.800 L 209.200 144.800 209.200 189.951 C 209.200 239.942,209.378 236.595,206.563 239.410 C 204.862 241.111,203.746 241.606,200.842 241.947 C 198.480 242.224,197.256 243.263,198.400 244.020 C 199.796 244.944,256.937 244.241,261.400 243.244 C 286.432 237.656,301.107 220.177,302.243 194.600 C 303.567 164.787,285.106 143.638,254.584 140.001 C 249.839 139.435,211.366 139.143,206.000 139.632 M253.000 140.438 C 276.186 142.613,292.648 154.662,299.130 174.200 C 299.886 176.479,300.204 177.803,301.179 182.731 C 302.266 188.229,301.566 201.033,299.807 207.800 C 295.896 222.854,283.695 235.723,268.600 240.715 C 266.353 241.458,265.374 241.714,260.800 242.753 C 254.981 244.074,198.932 244.595,198.511 243.332 C 198.409 243.028,199.171 242.770,200.677 242.599 C 204.747 242.135,207.263 240.506,208.855 237.302 L 209.800 235.400 209.910 190.390 C 209.998 154.385,209.918 145.253,209.510 144.746 C 208.821 143.889,199.159 144.673,193.200 146.069 C 184.829 148.030,178.800 152.287,174.599 159.202 C 172.030 163.430,171.075 162.027,173.350 157.366 C 179.228 145.321,188.488 141.013,210.600 140.036 C 219.217 139.656,247.524 139.924,253.000 140.438 M144.000 140.575 C 154.612 142.324,162.384 148.289,165.401 157.000 C 171.330 174.118,160.517 194.437,144.700 195.899 C 141.954 196.152,141.899 196.426,144.111 198.856 C 145.040 199.877,149.035 204.287,152.989 208.656 C 156.943 213.025,161.185 217.680,162.417 219.000 C 163.648 220.320,165.633 222.479,166.828 223.797 C 168.023 225.115,170.091 227.365,171.425 228.797 C 172.759 230.229,174.913 232.570,176.211 234.000 C 198.498 258.541,212.234 268.000,225.587 268.000 C 231.171 268.000,231.469 268.976,226.200 270.006 C 207.734 273.618,191.540 265.552,171.582 242.800 C 169.942 240.930,168.510 239.310,168.400 239.200 C 168.290 239.090,166.670 237.290,164.800 235.200 C 162.930 233.110,161.310 231.310,161.200 231.200 C 161.090 231.090,159.470 229.290,157.600 227.200 C 155.730 225.110,153.375 222.500,152.365 221.400 C 151.355 220.300,149.735 218.501,148.765 217.401 C 147.794 216.302,146.082 214.412,144.959 213.201 C 143.837 211.991,142.217 210.190,141.360 209.200 C 140.502 208.210,138.882 206.410,137.760 205.200 C 136.637 203.990,135.025 202.190,134.177 201.200 C 131.352 197.901,128.182 194.940,126.281 193.826 C 123.670 192.296,123.902 192.000,127.710 192.000 C 147.163 192.000,156.028 184.500,155.986 168.080 C 155.963 159.465,154.030 153.602,149.817 149.377 C 145.537 145.083,142.700 144.400,129.145 144.400 L 119.200 144.400 119.200 189.874 C 119.200 234.863,119.209 235.365,120.018 237.037 C 121.613 240.331,124.202 242.102,128.123 242.580 C 129.623 242.763,130.390 243.029,130.289 243.332 C 130.065 244.004,98.735 244.004,98.511 243.332 C 98.409 243.028,99.174 242.767,100.677 242.589 C 104.479 242.141,107.616 239.851,109.015 236.503 C 109.906 234.369,109.893 149.599,109.001 147.464 C 107.575 144.050,104.610 141.884,100.696 141.395 C 99.145 141.201,98.400 140.928,98.400 140.554 C 98.400 139.737,139.034 139.756,144.000 140.575 M219.700 144.265 C 219.304 144.425,219.200 154.361,219.200 192.067 L 219.200 239.667 238.100 239.487 C 259.459 239.283,260.050 239.206,267.343 235.686 C 283.491 227.892,292.926 208.201,290.838 186.653 C 290.388 182.003,290.242 181.114,289.190 176.600 C 286.335 164.354,277.957 153.437,267.669 148.557 C 263.384 146.525,263.283 146.485,260.600 145.773 C 255.092 144.312,222.557 143.112,219.700 144.265 M255.967 145.414 C 277.964 148.982,291.165 167.755,290.271 194.200 C 289.685 211.537,283.185 224.868,271.527 232.643 C 262.939 238.370,257.740 239.297,235.200 239.121 L 219.800 239.000 219.697 192.400 C 219.640 166.770,219.680 145.575,219.784 145.300 C 220.088 144.504,250.953 144.601,255.967 145.414 " stroke="none" fill="#242424" fill-rule="evenodd"></path></g></svg>